<svg width="145" height="125" viewBox="0 0 145 125" fill="none" xmlns="http://www.w3.org/2000/svg">
<path d="M76.9646 1.06586C98.8788 3.11616 116.401 13.453 127.833 31.0514C131.452 36.6043 135.116 45.8519 136.02 51.6611C136.131 52.3659 136.395 54.0531 136.594 55.3986C137.08 58.5381 137.146 68.1916 136.704 71.0962C135.138 81.3476 131.96 89.6129 126.619 97.3655C124.456 100.505 121.72 103.901 121.278 104.05C121.124 104.093 120.374 103.559 119.601 102.876C118.829 102.192 117.085 100.697 115.739 99.5226C114.371 98.3693 113.268 97.3228 113.268 97.1733C113.268 97.0452 113.687 96.4472 114.172 95.8705C119.469 89.6769 123.154 82.4368 124.942 74.6201C126.023 69.8788 126.178 68.4692 126.178 63.194C126.156 57.7052 126.001 56.4024 124.721 51.234C122.338 41.6659 117.637 33.5715 110.465 26.6304C103.932 20.3087 95.6788 15.6101 87.1162 13.3249C82.6583 12.1289 80.5397 11.7872 75.2432 11.4028C67.8502 10.8688 58.9345 12.4065 51.4973 15.482C43.7512 18.7069 37.572 23.0424 31.79 29.3855C26.6701 34.9811 22.477 42.6056 20.6012 49.6749C19.0123 55.5908 18.9461 56.2102 18.924 63.0872C18.924 67.3586 19.0123 69.9642 19.2109 71.2029C19.5861 73.4455 20.9322 78.6353 21.506 80.0662C21.7488 80.6428 22.1019 81.5612 22.2784 82.0738C23.5143 85.6191 27.597 92.3893 30.5542 95.8278C31.128 96.5112 31.6135 97.216 31.6135 97.3655C31.6135 97.515 31.1942 97.9635 30.6866 98.3693C30.1569 98.7538 28.6121 100.078 27.1997 101.295C23.8012 104.243 23.7791 104.264 23.1832 103.751C21.9915 102.726 17.9971 97.1306 16.1213 93.8629C10.5379 84.1881 8 74.5774 8 63.0872C8 56.7655 8.75033 51.3621 10.3613 46.215C13.6496 35.5791 18.7474 27.2498 26.5156 19.7107C30.6425 15.7383 32.2976 14.3928 36.27 11.7658C44.2367 6.4906 53.969 2.88123 63.9441 1.47165C66.2392 1.12994 74.9122 0.87365 76.9646 1.06586Z" fill="url(#paint0_linear_24_100)"/>
<path d="M76.0819 33.5075C79.6349 33.9987 82.1066 34.6181 84.2473 35.5364C84.7328 35.75 85.5714 36.0917 86.1231 36.3267C86.6748 36.5616 87.7783 37.181 88.5507 37.6722C95.6568 42.3067 99.7616 47.3256 102.233 54.5017C104.021 59.6701 103.999 67.3373 102.189 72.5912C101.461 74.7269 99.1878 78.9984 97.7092 80.9846C96.0982 83.163 92.3686 86.7297 90.3162 88.0752C89.5217 88.5878 88.8155 89.1003 88.7272 89.2285C88.639 89.3566 88.5507 97.0025 88.5507 106.229C88.5507 119 88.4845 123.08 88.2859 123.272C87.9328 123.614 57.4118 123.635 56.7497 123.315C56.3304 123.08 56.3304 122.738 56.3304 106.378C56.3304 97.1947 56.3304 89.5702 56.3304 89.442C56.3304 89.2925 55.4036 88.545 54.2781 87.7335C50.7912 85.2347 47.525 81.7321 45.4506 78.2936C43.0451 74.3211 41.3237 68.2343 41.3237 63.7066C41.3237 62.2116 41.8313 58.0897 42.2286 56.3597C43.4865 50.8069 47.7678 44.1648 52.4684 40.4486C56.4187 37.3305 61.0311 35.0239 64.9151 34.2337C69.5937 33.2939 72.904 33.0804 76.0819 33.5075ZM68.2034 42.6911C63.4807 43.7376 60.4573 45.3608 56.9704 48.6711C54.0794 51.4262 52.5126 54.0104 51.3429 58.0683C50.7691 59.9691 50.7029 60.5457 50.7029 63.3008C50.7029 66.5898 50.9898 68.2343 52.005 70.8399C54.6974 77.7597 60.7662 82.7359 68.2475 84.1241C70.1896 84.5085 74.2281 84.5512 76.104 84.2095C80.6722 83.4193 84.2694 81.668 87.5576 78.6353C89.6762 76.7132 90.89 75.09 92.1699 72.4631C93.781 69.2168 94.1782 67.4441 94.1782 63.4076C94.1782 60.5244 94.0899 59.7128 93.6706 58.1751C91.5741 50.636 85.3949 44.8055 77.406 42.7979C75.3978 42.2853 70.2337 42.2213 68.2034 42.6911ZM76.8543 93.3077C74.4488 93.7135 70.9178 93.7135 68.0268 93.3077C66.5482 93.0941 65.7096 93.0514 65.6213 93.1796C65.4227 93.4999 65.4889 113.533 65.6875 113.96C65.8641 114.323 66.3937 114.345 72.573 114.345H79.2818V103.815C79.2818 98.0063 79.2156 93.2009 79.1274 93.1368C78.9508 92.9446 79.017 92.9446 76.8543 93.3077Z" fill="url(#paint1_linear_24_100)"/>
<defs>
<linearGradient id="paint0_linear_24_100" x1="72.5" y1="0.999964" x2="72.5" y2="104.053" gradientUnits="userSpaceOnUse">
<stop offset="0.517983" stop-color="#D3FFF3"/>
<stop offset="1" stop-color="#AFBBF2"/>
</linearGradient>
<linearGradient id="paint1_linear_24_100" x1="72.442" y1="33.297" x2="72.442" y2="123.542" gradientUnits="userSpaceOnUse">
<stop offset="0.517983" stop-color="#D3FFF3"/>
<stop offset="1" stop-color="#AFBBF2"/>
</linearGradient>
</defs>
</svg>
