<svg width="145" height="125" viewBox="0 0 145 125" fill="none" xmlns="http://www.w3.org/2000/svg">
<g clip-path="url(#clip0_19_16)">
<path d="M0 38C0 17.0132 17.0132 0 38 0H107C127.987 0 145 17.0132 145 38V87C145 107.987 127.987 125 107 125H38C17.0132 125 0 107.987 0 87V38Z" fill="#021438"/>
<path d="M75.1533 27.539C88.3272 28.7109 98.861 34.6191 105.733 44.6777C107.909 47.8515 110.111 53.1372 110.655 56.4575C110.722 56.8603 110.881 57.8247 111 58.5937C111.292 60.3882 111.332 65.9057 111.066 67.5659C110.125 73.4253 108.214 78.1494 105.004 82.5805C103.703 84.375 102.058 86.3159 101.793 86.4013C101.7 86.4258 101.249 86.1206 100.785 85.73C100.32 85.3393 99.2723 84.4848 98.463 83.8135C97.6405 83.1543 96.9772 82.5561 96.9772 82.4707C96.9772 82.3974 97.2292 82.0556 97.5211 81.726C100.705 78.186 102.921 74.0478 103.995 69.5801C104.645 66.8701 104.738 66.0644 104.738 63.0493C104.725 59.9121 104.632 59.1675 103.863 56.2134C102.43 50.7446 99.604 46.1181 95.2923 42.1509C91.3653 38.5376 86.4036 35.852 81.2561 34.5459C78.5762 33.8623 77.3026 33.667 74.1185 33.4472C69.6742 33.1421 64.3144 34.021 59.8435 35.7788C55.1869 37.622 51.4722 40.1001 47.9963 43.7256C44.9184 46.9238 42.3977 51.2817 41.27 55.3222C40.3148 58.7036 40.275 59.0576 40.2618 62.9883C40.2618 65.4297 40.3148 66.9189 40.4342 67.6269C40.6598 68.9087 41.469 71.875 41.814 72.6928C41.9599 73.0224 42.1722 73.5473 42.2783 73.8403C43.0212 75.8667 45.4756 79.7363 47.2533 81.7016C47.5983 82.0923 47.8901 82.4951 47.8901 82.5805C47.8901 82.666 47.6381 82.9223 47.3329 83.1543C47.0145 83.374 46.0859 84.1308 45.2368 84.8266C43.1937 86.5112 43.1804 86.5234 42.8222 86.2304C42.1058 85.6445 39.7046 82.4463 38.5769 80.5786C35.2204 75.0488 33.6947 69.5556 33.6947 62.9883C33.6947 59.375 34.1458 56.2866 35.1143 53.3447C37.091 47.2656 40.1556 42.5049 44.8255 38.1958C47.3064 35.9253 48.3014 35.1562 50.6894 33.6548C55.4787 30.6396 61.3294 28.5766 67.326 27.771C68.7057 27.5757 73.9195 27.4292 75.1533 27.539Z" fill="url(#paint0_linear_19_16)"/>
<path d="M74.6227 46.0815C76.7586 46.3623 78.2445 46.7163 79.5314 47.2412C79.8233 47.3633 80.3274 47.5586 80.6591 47.6928C80.9907 47.8271 81.6541 48.1811 82.1184 48.4619C86.3903 51.1108 88.8579 53.9795 90.3438 58.081C91.4184 61.0351 91.4051 65.4175 90.3173 68.4204C89.8795 69.6411 88.513 72.0825 87.6241 73.2177C86.6556 74.4629 84.4136 76.5014 83.1798 77.2705C82.7022 77.5635 82.2776 77.8564 82.2246 77.9297C82.1715 78.0029 82.1184 82.373 82.1184 87.6465C82.1184 94.9463 82.0786 97.2778 81.9592 97.3877C81.7469 97.583 63.399 97.5952 63.001 97.4121C62.7489 97.2778 62.7489 97.0825 62.7489 87.7319C62.7489 82.4829 62.7489 78.125 62.7489 78.0517C62.7489 77.9663 62.1917 77.539 61.5151 77.0752C59.419 75.6469 57.4555 73.645 56.2084 71.6797C54.7624 69.4092 53.7276 65.9302 53.7276 63.3423C53.7276 62.4878 54.0327 60.1318 54.2715 59.143C55.0277 55.9692 57.6014 52.1728 60.4273 50.0488C62.802 48.2666 65.5748 46.9482 67.9097 46.4966C70.7223 45.9594 72.7123 45.8374 74.6227 46.0815ZM69.8865 51.3305C67.0474 51.9287 65.2298 52.8564 63.1337 54.7485C61.3957 56.3232 60.4538 57.8003 59.7507 60.1196C59.4057 61.206 59.3659 61.5356 59.3659 63.1103C59.3659 64.9902 59.5384 65.9302 60.1487 67.4194C61.7672 71.3745 65.4156 74.2187 69.913 75.0122C71.0805 75.2319 73.5083 75.2563 74.636 75.061C77.3822 74.6094 79.5447 73.6084 81.5214 71.875C82.795 70.7763 83.5247 69.8486 84.2942 68.3471C85.2626 66.4917 85.5014 65.4785 85.5014 63.1714C85.5014 61.5234 85.4484 61.0595 85.1963 60.1806C83.936 55.8716 80.2213 52.539 75.4187 51.3916C74.2114 51.0986 71.107 51.062 69.8865 51.3305ZM75.087 80.2612C73.641 80.4931 71.5183 80.4931 69.7803 80.2612C68.8915 80.1391 68.3873 80.1147 68.3343 80.188C68.2149 80.3711 68.2547 91.8213 68.3741 92.0654C68.4802 92.2729 68.7986 92.2851 72.5133 92.2851H76.5464V86.2671C76.5464 82.9468 76.5066 80.2002 76.4535 80.1635C76.3474 80.0537 76.3872 80.0537 75.087 80.2612Z" fill="url(#paint1_linear_19_16)"/>
</g>
<defs>
<linearGradient id="paint0_linear_19_16" x1="72.4694" y1="27.5014" x2="72.4694" y2="86.4027" gradientUnits="userSpaceOnUse">
<stop offset="0.517983" stop-color="#D3FFF3"/>
<stop offset="1" stop-color="#AFBBF2"/>
</linearGradient>
<linearGradient id="paint1_linear_19_16" x1="72.4345" y1="45.9612" x2="72.4345" y2="97.5421" gradientUnits="userSpaceOnUse">
<stop offset="0.517983" stop-color="#D3FFF3"/>
<stop offset="1" stop-color="#AFBBF2"/>
</linearGradient>
<clipPath id="clip0_19_16">
<rect width="145" height="125" fill="white"/>
</clipPath>
</defs>
</svg>
